<mxfile host="app.diagrams.net" agent="Mozilla/5.0 (Windows NT 10.0; Win64; x64) AppleWebKit/537.36 (KHTML, like Gecko) Chrome/127.0.0.0 Safari/537.36" version="24.7.6">
  <diagram name="Page-1" id="d5Q3JcSHPtVBbD_J7kqe">
    <mxGraphModel dx="1720" dy="759" grid="1" gridSize="10" guides="1" tooltips="1" connect="1" arrows="1" fold="1" page="1" pageScale="1" pageWidth="850" pageHeight="1100" math="0" shadow="0">
      <root>
        <mxCell id="0" />
        <mxCell id="1" parent="0" />
        <mxCell id="x1J_HqTYHEglwlhFewGx-1" value="" style="ellipse;fillColor=strokeColor;html=1;" vertex="1" parent="1">
          <mxGeometry x="381" width="40" height="40" as="geometry" />
        </mxCell>
        <mxCell id="x1J_HqTYHEglwlhFewGx-2" value="Log In" style="rounded=1;whiteSpace=wrap;html=1;" vertex="1" parent="1">
          <mxGeometry x="341" y="80" width="120" height="60" as="geometry" />
        </mxCell>
        <mxCell id="x1J_HqTYHEglwlhFewGx-3" value="" style="endArrow=classic;html=1;rounded=0;exitX=0.5;exitY=1;exitDx=0;exitDy=0;" edge="1" parent="1">
          <mxGeometry width="50" height="50" relative="1" as="geometry">
            <mxPoint x="400" y="39.99999999999994" as="sourcePoint" />
            <mxPoint x="400" y="80" as="targetPoint" />
          </mxGeometry>
        </mxCell>
        <mxCell id="x1J_HqTYHEglwlhFewGx-4" value="Open Homepage" style="rounded=1;whiteSpace=wrap;html=1;" vertex="1" parent="1">
          <mxGeometry x="340" y="300" width="120" height="60" as="geometry" />
        </mxCell>
        <mxCell id="x1J_HqTYHEglwlhFewGx-5" value="Place Items in Cart" style="rounded=1;whiteSpace=wrap;html=1;" vertex="1" parent="1">
          <mxGeometry x="340" y="400" width="120" height="60" as="geometry" />
        </mxCell>
        <mxCell id="x1J_HqTYHEglwlhFewGx-6" value="Check Account Type" style="rhombus;whiteSpace=wrap;html=1;" vertex="1" parent="1">
          <mxGeometry x="340" y="180" width="120" height="80" as="geometry" />
        </mxCell>
        <mxCell id="x1J_HqTYHEglwlhFewGx-7" value="Review Items" style="rhombus;whiteSpace=wrap;html=1;" vertex="1" parent="1">
          <mxGeometry x="361" y="500" width="80" height="80" as="geometry" />
        </mxCell>
        <mxCell id="x1J_HqTYHEglwlhFewGx-8" value="Place Order" style="rounded=1;whiteSpace=wrap;html=1;" vertex="1" parent="1">
          <mxGeometry x="341" y="620" width="120" height="60" as="geometry" />
        </mxCell>
        <mxCell id="x1J_HqTYHEglwlhFewGx-9" value="" style="html=1;points=[];perimeter=orthogonalPerimeter;fillColor=strokeColor;direction=south;" vertex="1" parent="1">
          <mxGeometry x="80" y="717.5" width="640" height="5" as="geometry" />
        </mxCell>
        <mxCell id="x1J_HqTYHEglwlhFewGx-10" value="Payment Using Card" style="rounded=1;whiteSpace=wrap;html=1;" vertex="1" parent="1">
          <mxGeometry x="340" y="760" width="120" height="60" as="geometry" />
        </mxCell>
        <mxCell id="x1J_HqTYHEglwlhFewGx-11" value="Payment Using UPI" style="rounded=1;whiteSpace=wrap;html=1;" vertex="1" parent="1">
          <mxGeometry x="20" y="760" width="120" height="60" as="geometry" />
        </mxCell>
        <mxCell id="x1J_HqTYHEglwlhFewGx-12" value="Cash On Delivery" style="rounded=1;whiteSpace=wrap;html=1;" vertex="1" parent="1">
          <mxGeometry x="660" y="760" width="120" height="60" as="geometry" />
        </mxCell>
        <mxCell id="x1J_HqTYHEglwlhFewGx-13" value="" style="html=1;points=[];perimeter=orthogonalPerimeter;fillColor=strokeColor;direction=south;" vertex="1" parent="1">
          <mxGeometry x="80" y="860" width="640" height="5" as="geometry" />
        </mxCell>
        <mxCell id="x1J_HqTYHEglwlhFewGx-15" value="Transaction&lt;div&gt;Successful&lt;/div&gt;" style="rhombus;whiteSpace=wrap;html=1;" vertex="1" parent="1">
          <mxGeometry x="360" y="900" width="80" height="80" as="geometry" />
        </mxCell>
        <mxCell id="x1J_HqTYHEglwlhFewGx-16" value="Send Order Confirmation Message" style="rounded=1;whiteSpace=wrap;html=1;" vertex="1" parent="1">
          <mxGeometry x="340" y="1020" width="120" height="60" as="geometry" />
        </mxCell>
        <mxCell id="x1J_HqTYHEglwlhFewGx-17" value="" style="ellipse;html=1;shape=endState;fillColor=strokeColor;" vertex="1" parent="1">
          <mxGeometry x="380" y="1120" width="40" height="40" as="geometry" />
        </mxCell>
        <mxCell id="x1J_HqTYHEglwlhFewGx-18" value="" style="endArrow=classic;html=1;rounded=0;exitX=0.5;exitY=1;exitDx=0;exitDy=0;" edge="1" parent="1">
          <mxGeometry width="50" height="50" relative="1" as="geometry">
            <mxPoint x="399.62" y="139.99999999999994" as="sourcePoint" />
            <mxPoint x="399.62" y="180" as="targetPoint" />
          </mxGeometry>
        </mxCell>
        <mxCell id="x1J_HqTYHEglwlhFewGx-19" value="" style="endArrow=classic;html=1;rounded=0;exitX=0.5;exitY=1;exitDx=0;exitDy=0;" edge="1" parent="1">
          <mxGeometry width="50" height="50" relative="1" as="geometry">
            <mxPoint x="399.62" y="259.99999999999994" as="sourcePoint" />
            <mxPoint x="399.62" y="300" as="targetPoint" />
          </mxGeometry>
        </mxCell>
        <mxCell id="x1J_HqTYHEglwlhFewGx-20" value="" style="endArrow=classic;html=1;rounded=0;exitX=0.5;exitY=1;exitDx=0;exitDy=0;" edge="1" parent="1">
          <mxGeometry width="50" height="50" relative="1" as="geometry">
            <mxPoint x="399.62" y="359.99999999999994" as="sourcePoint" />
            <mxPoint x="399.62" y="400" as="targetPoint" />
          </mxGeometry>
        </mxCell>
        <mxCell id="x1J_HqTYHEglwlhFewGx-21" value="" style="endArrow=classic;html=1;rounded=0;exitX=0.5;exitY=1;exitDx=0;exitDy=0;" edge="1" parent="1">
          <mxGeometry width="50" height="50" relative="1" as="geometry">
            <mxPoint x="399.62" y="459.99999999999994" as="sourcePoint" />
            <mxPoint x="399.62" y="500" as="targetPoint" />
          </mxGeometry>
        </mxCell>
        <mxCell id="x1J_HqTYHEglwlhFewGx-22" value="" style="endArrow=classic;html=1;rounded=0;exitX=0.5;exitY=1;exitDx=0;exitDy=0;" edge="1" parent="1">
          <mxGeometry width="50" height="50" relative="1" as="geometry">
            <mxPoint x="400.62" y="580" as="sourcePoint" />
            <mxPoint x="400.62" y="620" as="targetPoint" />
          </mxGeometry>
        </mxCell>
        <mxCell id="x1J_HqTYHEglwlhFewGx-23" value="" style="endArrow=classic;html=1;rounded=0;exitX=0.5;exitY=1;exitDx=0;exitDy=0;" edge="1" parent="1">
          <mxGeometry width="50" height="50" relative="1" as="geometry">
            <mxPoint x="399.62" y="680" as="sourcePoint" />
            <mxPoint x="399.62" y="720" as="targetPoint" />
          </mxGeometry>
        </mxCell>
        <mxCell id="x1J_HqTYHEglwlhFewGx-24" value="" style="endArrow=classic;html=1;rounded=0;exitX=0.5;exitY=1;exitDx=0;exitDy=0;" edge="1" parent="1">
          <mxGeometry width="50" height="50" relative="1" as="geometry">
            <mxPoint x="80" y="720" as="sourcePoint" />
            <mxPoint x="80" y="760" as="targetPoint" />
          </mxGeometry>
        </mxCell>
        <mxCell id="x1J_HqTYHEglwlhFewGx-25" value="" style="endArrow=classic;html=1;rounded=0;exitX=0.5;exitY=1;exitDx=0;exitDy=0;" edge="1" parent="1">
          <mxGeometry width="50" height="50" relative="1" as="geometry">
            <mxPoint x="399.74" y="717.5" as="sourcePoint" />
            <mxPoint x="399.74" y="757.5" as="targetPoint" />
          </mxGeometry>
        </mxCell>
        <mxCell id="x1J_HqTYHEglwlhFewGx-26" value="" style="endArrow=classic;html=1;rounded=0;exitX=0.5;exitY=1;exitDx=0;exitDy=0;" edge="1" parent="1">
          <mxGeometry width="50" height="50" relative="1" as="geometry">
            <mxPoint x="720" y="720" as="sourcePoint" />
            <mxPoint x="720" y="760" as="targetPoint" />
          </mxGeometry>
        </mxCell>
        <mxCell id="x1J_HqTYHEglwlhFewGx-27" value="" style="endArrow=classic;html=1;rounded=0;exitX=0.5;exitY=1;exitDx=0;exitDy=0;" edge="1" parent="1">
          <mxGeometry width="50" height="50" relative="1" as="geometry">
            <mxPoint x="720" y="820" as="sourcePoint" />
            <mxPoint x="720" y="860" as="targetPoint" />
          </mxGeometry>
        </mxCell>
        <mxCell id="x1J_HqTYHEglwlhFewGx-28" value="" style="endArrow=classic;html=1;rounded=0;exitX=0.5;exitY=1;exitDx=0;exitDy=0;" edge="1" parent="1">
          <mxGeometry width="50" height="50" relative="1" as="geometry">
            <mxPoint x="399.74" y="820" as="sourcePoint" />
            <mxPoint x="399.74" y="860" as="targetPoint" />
          </mxGeometry>
        </mxCell>
        <mxCell id="x1J_HqTYHEglwlhFewGx-29" value="" style="endArrow=classic;html=1;rounded=0;exitX=0.5;exitY=1;exitDx=0;exitDy=0;" edge="1" parent="1">
          <mxGeometry width="50" height="50" relative="1" as="geometry">
            <mxPoint x="80" y="820" as="sourcePoint" />
            <mxPoint x="80" y="860" as="targetPoint" />
          </mxGeometry>
        </mxCell>
        <mxCell id="x1J_HqTYHEglwlhFewGx-30" value="" style="endArrow=classic;html=1;rounded=0;exitX=0.5;exitY=1;exitDx=0;exitDy=0;" edge="1" parent="1">
          <mxGeometry width="50" height="50" relative="1" as="geometry">
            <mxPoint x="399.74" y="860" as="sourcePoint" />
            <mxPoint x="399.74" y="900" as="targetPoint" />
          </mxGeometry>
        </mxCell>
        <mxCell id="x1J_HqTYHEglwlhFewGx-31" value="" style="endArrow=classic;html=1;rounded=0;exitX=0.5;exitY=1;exitDx=0;exitDy=0;" edge="1" parent="1">
          <mxGeometry width="50" height="50" relative="1" as="geometry">
            <mxPoint x="400.74" y="980" as="sourcePoint" />
            <mxPoint x="400.74" y="1020" as="targetPoint" />
          </mxGeometry>
        </mxCell>
        <mxCell id="x1J_HqTYHEglwlhFewGx-32" value="" style="endArrow=classic;html=1;rounded=0;exitX=0.5;exitY=1;exitDx=0;exitDy=0;" edge="1" parent="1">
          <mxGeometry width="50" height="50" relative="1" as="geometry">
            <mxPoint x="399.74" y="1080" as="sourcePoint" />
            <mxPoint x="399.74" y="1120" as="targetPoint" />
          </mxGeometry>
        </mxCell>
        <mxCell id="x1J_HqTYHEglwlhFewGx-33" value="User" style="text;html=1;align=center;verticalAlign=middle;resizable=0;points=[];autosize=1;strokeColor=none;fillColor=none;" vertex="1" parent="1">
          <mxGeometry x="400" y="260" width="50" height="30" as="geometry" />
        </mxCell>
        <mxCell id="x1J_HqTYHEglwlhFewGx-34" value="" style="edgeStyle=segmentEdgeStyle;endArrow=classic;html=1;curved=0;rounded=0;endSize=8;startSize=8;" edge="1" parent="1">
          <mxGeometry width="50" height="50" relative="1" as="geometry">
            <mxPoint x="461" y="220" as="sourcePoint" />
            <mxPoint x="640" y="300" as="targetPoint" />
          </mxGeometry>
        </mxCell>
        <mxCell id="x1J_HqTYHEglwlhFewGx-35" value="Open Dashboard" style="rounded=1;whiteSpace=wrap;html=1;" vertex="1" parent="1">
          <mxGeometry x="580" y="300" width="120" height="60" as="geometry" />
        </mxCell>
        <mxCell id="x1J_HqTYHEglwlhFewGx-36" value="Manage Menu" style="rounded=1;whiteSpace=wrap;html=1;" vertex="1" parent="1">
          <mxGeometry x="580" y="400" width="120" height="60" as="geometry" />
        </mxCell>
        <mxCell id="x1J_HqTYHEglwlhFewGx-37" value="" style="endArrow=classic;html=1;rounded=0;exitX=0.5;exitY=1;exitDx=0;exitDy=0;" edge="1" parent="1">
          <mxGeometry width="50" height="50" relative="1" as="geometry">
            <mxPoint x="639.5" y="359.99999999999994" as="sourcePoint" />
            <mxPoint x="639.5" y="400" as="targetPoint" />
          </mxGeometry>
        </mxCell>
        <mxCell id="x1J_HqTYHEglwlhFewGx-39" value="" style="edgeStyle=elbowEdgeStyle;elbow=horizontal;endArrow=classic;html=1;curved=0;rounded=0;endSize=8;startSize=8;entryX=1;entryY=0.5;entryDx=0;entryDy=0;" edge="1" parent="1" target="x1J_HqTYHEglwlhFewGx-17">
          <mxGeometry width="50" height="50" relative="1" as="geometry">
            <mxPoint x="700" y="430" as="sourcePoint" />
            <mxPoint x="740" y="940" as="targetPoint" />
            <Array as="points">
              <mxPoint x="830" y="620" />
            </Array>
          </mxGeometry>
        </mxCell>
        <mxCell id="x1J_HqTYHEglwlhFewGx-40" value="Hotels" style="text;html=1;align=center;verticalAlign=middle;resizable=0;points=[];autosize=1;strokeColor=none;fillColor=none;" vertex="1" parent="1">
          <mxGeometry x="480" y="188" width="60" height="30" as="geometry" />
        </mxCell>
        <mxCell id="x1J_HqTYHEglwlhFewGx-41" value="Correct" style="text;html=1;align=center;verticalAlign=middle;resizable=0;points=[];autosize=1;strokeColor=none;fillColor=none;" vertex="1" parent="1">
          <mxGeometry x="340" y="580" width="60" height="30" as="geometry" />
        </mxCell>
        <mxCell id="x1J_HqTYHEglwlhFewGx-42" value="" style="edgeStyle=elbowEdgeStyle;elbow=horizontal;endArrow=classic;html=1;curved=0;rounded=0;endSize=8;startSize=8;exitX=1;exitY=0.5;exitDx=0;exitDy=0;" edge="1" parent="1" source="x1J_HqTYHEglwlhFewGx-7">
          <mxGeometry width="50" height="50" relative="1" as="geometry">
            <mxPoint x="450" y="500" as="sourcePoint" />
            <mxPoint x="460" y="330" as="targetPoint" />
            <Array as="points">
              <mxPoint x="490" y="500" />
            </Array>
          </mxGeometry>
        </mxCell>
        <mxCell id="x1J_HqTYHEglwlhFewGx-43" value="Wrong" style="text;html=1;align=center;verticalAlign=middle;resizable=0;points=[];autosize=1;strokeColor=none;fillColor=none;" vertex="1" parent="1">
          <mxGeometry x="430" y="510" width="60" height="30" as="geometry" />
        </mxCell>
      </root>
    </mxGraphModel>
  </diagram>
</mxfile>
